<?xml version="1.0" encoding="UTF-8"?>
<svg width="200" height="200" viewBox="0 0 200 200" version="1.1" xmlns="http://www.w3.org/2000/svg">
    <defs>
        <linearGradient id="grad" x1="0%" y1="0%" x2="100%" y2="100%">
            <stop offset="0%" style="stop-color:#8A2BE2;stop-opacity:1" />
            <stop offset="100%" style="stop-color:#9370DB;stop-opacity:1" />
        </linearGradient>
    </defs>
    <g fill="none" fill-rule="evenodd">
        <!-- Cerchio esterno -->
        <circle cx="100" cy="100" r="90" fill="url(#grad)" />
        
        <!-- Lettera B stilizzata -->
        <path d="M70 60 
                 L70 140 
                 L110 140
                 C130 140 145 125 145 110
                 C145 100 140 90 130 85
                 C135 80 140 70 140 65
                 C140 50 125 40 110 40
                 L70 40
                 Z" 
              fill="white"/>
        
        <!-- Dettagli interni della B -->
        <path d="M90 60
                 L110 60
                 C115 60 120 65 120 70
                 C120 75 115 80 110 80
                 L90 80
                 Z" 
              fill="url(#grad)"/>
        
        <path d="M90 100
                 L110 100
                 C115 100 125 105 125 110
                 C125 115 115 120 110 120
                 L90 120
                 Z" 
              fill="url(#grad)"/>
    </g>
</svg> 